#include "hUGEDriver.h"
#include <stddef.h>
#include <gb/gb.h>

#pragma bank 255
BANKREF(vvvvvv_music)

static const unsigned char order_cnt = 50;

static const unsigned char P0[] = {
    DN(___,0,0x000),
    DN(___,0,0x000),
    DN(___,0,0x000),
    DN(___,0,0x000),
    DN(___,0,0x000),
    DN(___,0,0x000),
    DN(___,0,0x000),
    DN(___,0,0x000),
    DN(___,0,0x000),
    DN(___,0,0x000),
    DN(___,0,0x000),
    DN(___,0,0x000),
    DN(___,0,0x000),
    DN(___,0,0x000),
    DN(___,0,0x000),
    DN(___,0,0x000),
    DN(___,0,0x000),
    DN(___,0,0x000),
    DN(___,0,0x000),
    DN(___,0,0x000),
    DN(___,0,0x000),
    DN(___,0,0x000),
    DN(___,0,0x000),
    DN(___,0,0x000),
    DN(___,0,0x000),
    DN(___,0,0x000),
    DN(___,0,0x000),
    DN(___,0,0x000),
    DN(___,0,0x000),
    DN(___,0,0x000),
    DN(___,0,0x000),
    DN(___,0,0x000),
    DN(___,0,0x000),
    DN(___,0,0x000),
    DN(___,0,0x000),
    DN(___,0,0x000),
    DN(___,0,0x000),
    DN(___,0,0x000),
    DN(___,0,0x000),
    DN(___,0,0x000),
    DN(___,0,0x000),
    DN(___,0,0x000),
    DN(___,0,0x000),
    DN(___,0,0x000),
    DN(___,0,0x000),
    DN(___,0,0x000),
    DN(___,0,0x000),
    DN(___,0,0x000),
    DN(___,0,0x000),
    DN(___,0,0x000),
    DN(___,0,0x000),
    DN(___,0,0x000),
    DN(___,0,0x000),
    DN(___,0,0x000),
    DN(___,0,0x000),
    DN(___,0,0x000),
    DN(Ds4,5,0x000),
    DN(___,0,0x000),
    DN(Fs4,5,0x000),
    DN(___,0,0x000),
    DN(B_4,5,0x000),
    DN(___,0,0x000),
    DN(Fs4,5,0x000),
    DN(___,0,0x000),
};
static const unsigned char P1[] = {
    DN(___,0,0x000),
    DN(___,0,0x000),
    DN(___,0,0x000),
    DN(___,0,0x000),
    DN(___,0,0x000),
    DN(___,0,0x000),
    DN(___,0,0x000),
    DN(___,0,0x000),
    DN(___,0,0x000),
    DN(___,0,0x000),
    DN(___,0,0x000),
    DN(___,0,0x000),
    DN(___,0,0x000),
    DN(___,0,0x000),
    DN(___,0,0x000),
    DN(___,0,0x000),
    DN(___,0,0x000),
    DN(___,0,0x000),
    DN(___,0,0x000),
    DN(___,0,0x000),
    DN(___,0,0x000),
    DN(___,0,0x000),
    DN(___,0,0x000),
    DN(___,0,0x000),
    DN(___,0,0x000),
    DN(___,0,0x000),
    DN(___,0,0x000),
    DN(___,0,0x000),
    DN(___,0,0x000),
    DN(___,0,0x000),
    DN(___,0,0x000),
    DN(___,0,0x000),
    DN(___,0,0x000),
    DN(___,0,0x000),
    DN(___,0,0x000),
    DN(___,0,0x000),
    DN(___,0,0x000),
    DN(___,0,0x000),
    DN(___,0,0x000),
    DN(___,0,0x000),
    DN(___,0,0x000),
    DN(___,0,0x000),
    DN(___,0,0x000),
    DN(___,0,0x000),
    DN(___,0,0x000),
    DN(___,0,0x000),
    DN(___,0,0x000),
    DN(___,0,0x000),
    DN(___,0,0x000),
    DN(___,0,0x000),
    DN(___,0,0x000),
    DN(___,0,0x000),
    DN(___,0,0x000),
    DN(___,0,0x000),
    DN(___,0,0x000),
    DN(___,0,0x000),
    DN(___,0,0x000),
    DN(___,0,0x000),
    DN(___,0,0x000),
    DN(___,0,0x000),
    DN(___,0,0x000),
    DN(___,0,0x000),
    DN(___,0,0x000),
    DN(___,0,0x000),
};
static const unsigned char P2[] = {
    DN(___,0,0xC00),
    DN(___,0,0x000),
    DN(___,0,0x000),
    DN(___,0,0x000),
    DN(___,0,0x000),
    DN(___,0,0x000),
    DN(___,0,0x000),
    DN(___,0,0x000),
    DN(___,0,0x000),
    DN(___,0,0x000),
    DN(___,0,0x000),
    DN(___,0,0x000),
    DN(___,0,0x000),
    DN(___,0,0x000),
    DN(___,0,0x000),
    DN(___,0,0x000),
    DN(___,0,0x000),
    DN(___,0,0x000),
    DN(___,0,0x000),
    DN(___,0,0x000),
    DN(___,0,0x000),
    DN(___,0,0x000),
    DN(___,0,0x000),
    DN(___,0,0x000),
    DN(___,0,0x000),
    DN(___,0,0x000),
    DN(___,0,0x000),
    DN(___,0,0x000),
    DN(___,0,0x000),
    DN(___,0,0x000),
    DN(___,0,0x000),
    DN(___,0,0x000),
    DN(___,0,0x000),
    DN(___,0,0x000),
    DN(___,0,0x000),
    DN(___,0,0x000),
    DN(___,0,0x000),
    DN(___,0,0x000),
    DN(___,0,0x000),
    DN(___,0,0x000),
    DN(___,0,0x000),
    DN(___,0,0x000),
    DN(___,0,0x000),
    DN(___,0,0x000),
    DN(___,0,0x000),
    DN(___,0,0x000),
    DN(___,0,0x000),
    DN(___,0,0x000),
    DN(___,0,0x000),
    DN(___,0,0x000),
    DN(___,0,0x000),
    DN(___,0,0x000),
    DN(___,0,0x000),
    DN(___,0,0x000),
    DN(___,0,0x000),
    DN(___,0,0x000),
    DN(___,0,0x000),
    DN(___,0,0x000),
    DN(___,0,0x000),
    DN(___,0,0x000),
    DN(___,0,0x000),
    DN(___,0,0x000),
    DN(___,0,0x000),
    DN(___,0,0x000),
};
static const unsigned char P3[] = {
    DN(C_8,1,0x000),
    DN(___,0,0x000),
    DN(___,0,0xC00),
    DN(___,0,0x000),
    DN(C_8,1,0x000),
    DN(___,0,0x000),
    DN(C_7,1,0x000),
    DN(___,0,0x000),
    DN(C_8,1,0x000),
    DN(___,0,0x000),
    DN(___,0,0xC00),
    DN(___,0,0x000),
    DN(C_7,1,0x000),
    DN(___,0,0x000),
    DN(___,0,0x000),
    DN(___,0,0x000),
    DN(C_8,1,0x000),
    DN(___,0,0x000),
    DN(C_8,1,0x000),
    DN(___,0,0x000),
    DN(C_7,1,0x000),
    DN(___,0,0x000),
    DN(___,0,0x000),
    DN(___,0,0x000),
    DN(C_8,1,0x000),
    DN(___,0,0x000),
    DN(___,0,0xC00),
    DN(___,0,0x000),
    DN(C_7,1,0x000),
    DN(___,0,0x000),
    DN(___,0,0x000),
    DN(___,0,0x000),
    DN(C_8,1,0x000),
    DN(___,0,0x000),
    DN(___,0,0xC00),
    DN(___,0,0x000),
    DN(C_8,1,0x000),
    DN(___,0,0x000),
    DN(C_7,1,0x000),
    DN(___,0,0x000),
    DN(C_8,1,0x000),
    DN(___,0,0x000),
    DN(___,0,0xC00),
    DN(___,0,0x000),
    DN(C_7,1,0x000),
    DN(___,0,0x000),
    DN(___,0,0x000),
    DN(___,0,0x000),
    DN(C_8,1,0x000),
    DN(___,0,0x000),
    DN(C_8,1,0x000),
    DN(___,0,0x000),
    DN(C_7,1,0x000),
    DN(___,0,0x000),
    DN(___,0,0x000),
    DN(___,0,0x000),
    DN(C_8,1,0x000),
    DN(___,0,0x000),
    DN(___,0,0xC00),
    DN(___,0,0x000),
    DN(C_7,1,0x000),
    DN(___,0,0x000),
    DN(___,0,0x000),
    DN(___,0,0x000),
};
static const unsigned char P4[] = {
    DN(C_8,2,0x000),
    DN(___,0,0x000),
    DN(___,0,0x000),
    DN(___,0,0x000),
    DN(C_8,1,0x000),
    DN(___,0,0x000),
    DN(C_7,1,0x000),
    DN(___,0,0x000),
    DN(C_8,1,0x000),
    DN(___,0,0x000),
    DN(___,0,0xC00),
    DN(___,0,0x000),
    DN(C_7,1,0x000),
    DN(___,0,0x000),
    DN(___,0,0x000),
    DN(___,0,0x000),
    DN(C_8,1,0x000),
    DN(___,0,0x000),
    DN(C_8,1,0x000),
    DN(___,0,0x000),
    DN(C_7,1,0x000),
    DN(___,0,0x000),
    DN(___,0,0x000),
    DN(___,0,0x000),
    DN(C_8,1,0x000),
    DN(___,0,0x000),
    DN(___,0,0xC00),
    DN(___,0,0x000),
    DN(C_7,1,0x000),
    DN(___,0,0x000),
    DN(___,0,0x000),
    DN(___,0,0x000),
    DN(C_8,1,0x000),
    DN(___,0,0x000),
    DN(___,0,0xC00),
    DN(___,0,0x000),
    DN(C_8,1,0x000),
    DN(___,0,0x000),
    DN(C_7,1,0x000),
    DN(___,0,0x000),
    DN(C_8,1,0x000),
    DN(___,0,0x000),
    DN(___,0,0xC00),
    DN(___,0,0x000),
    DN(C_7,1,0x000),
    DN(___,0,0x000),
    DN(___,0,0x000),
    DN(___,0,0x000),
    DN(C_8,1,0x000),
    DN(___,0,0x000),
    DN(C_8,1,0x000),
    DN(___,0,0x000),
    DN(C_7,1,0x000),
    DN(___,0,0x000),
    DN(___,0,0x000),
    DN(___,0,0x000),
    DN(C_8,1,0x000),
    DN(___,0,0x000),
    DN(___,0,0xC00),
    DN(___,0,0x000),
    DN(C_7,1,0x000),
    DN(___,0,0x000),
    DN(___,0,0x000),
    DN(___,0,0x000),
};
static const unsigned char P5[] = {
    DN(C_8,1,0x000),
    DN(___,0,0x000),
    DN(___,0,0xC00),
    DN(___,0,0x000),
    DN(C_8,1,0x000),
    DN(___,0,0x000),
    DN(C_7,1,0x000),
    DN(___,0,0x000),
    DN(C_7,3,0x000),
    DN(___,0,0x000),
    DN(___,0,0x000),
    DN(___,0,0x000),
    DN(C_7,1,0x000),
    DN(___,0,0x000),
    DN(___,0,0x000),
    DN(___,0,0x000),
    DN(C_8,1,0x000),
    DN(___,0,0x000),
    DN(C_8,1,0x000),
    DN(___,0,0x000),
    DN(C_7,1,0x000),
    DN(___,0,0x000),
    DN(___,0,0x000),
    DN(___,0,0x000),
    DN(C_7,3,0x000),
    DN(___,0,0x000),
    DN(___,0,0x000),
    DN(___,0,0x000),
    DN(C_7,1,0x000),
    DN(___,0,0x000),
    DN(___,0,0x000),
    DN(___,0,0x000),
    DN(C_8,1,0x000),
    DN(___,0,0x000),
    DN(___,0,0xC00),
    DN(___,0,0x000),
    DN(C_8,1,0x000),
    DN(___,0,0x000),
    DN(C_7,1,0x000),
    DN(___,0,0x000),
    DN(C_7,3,0x000),
    DN(___,0,0x000),
    DN(___,0,0x000),
    DN(___,0,0x000),
    DN(C_7,1,0x000),
    DN(___,0,0x000),
    DN(___,0,0x000),
    DN(___,0,0x000),
    DN(C_8,1,0x000),
    DN(___,0,0x000),
    DN(C_8,1,0x000),
    DN(___,0,0x000),
    DN(C_7,1,0x000),
    DN(___,0,0x000),
    DN(___,0,0x000),
    DN(___,0,0x000),
    DN(C_7,3,0x000),
    DN(___,0,0x000),
    DN(___,0,0x000),
    DN(___,0,0x000),
    DN(C_7,1,0x000),
    DN(___,0,0x000),
    DN(___,0,0x000),
    DN(___,0,0x000),
};
static const unsigned char P6[] = {
    DN(___,0,0x000),
    DN(___,0,0x000),
    DN(___,0,0x000),
    DN(___,0,0x000),
    DN(___,0,0x000),
    DN(___,0,0x000),
    DN(___,0,0x000),
    DN(___,0,0x000),
    DN(C_7,3,0x000),
    DN(___,0,0x000),
    DN(___,0,0x000),
    DN(___,0,0x000),
    DN(___,0,0x000),
    DN(___,0,0x000),
    DN(___,0,0x000),
    DN(___,0,0x000),
    DN(___,0,0x000),
    DN(___,0,0x000),
    DN(___,0,0x000),
    DN(___,0,0x000),
    DN(___,0,0x000),
    DN(___,0,0x000),
    DN(___,0,0x000),
    DN(___,0,0x000),
    DN(C_7,3,0x000),
    DN(___,0,0x000),
    DN(___,0,0x000),
    DN(___,0,0x000),
    DN(___,0,0x000),
    DN(___,0,0x000),
    DN(___,0,0x000),
    DN(___,0,0x000),
    DN(___,0,0x000),
    DN(___,0,0x000),
    DN(___,0,0x000),
    DN(___,0,0x000),
    DN(___,0,0x000),
    DN(___,0,0x000),
    DN(___,0,0x000),
    DN(___,0,0x000),
    DN(C_7,3,0x000),
    DN(___,0,0x000),
    DN(___,0,0x000),
    DN(___,0,0x000),
    DN(___,0,0x000),
    DN(___,0,0x000),
    DN(___,0,0x000),
    DN(___,0,0x000),
    DN(___,0,0x000),
    DN(___,0,0x000),
    DN(___,0,0x000),
    DN(___,0,0x000),
    DN(___,0,0x000),
    DN(___,0,0x000),
    DN(___,0,0x000),
    DN(___,0,0x000),
    DN(C_7,3,0x000),
    DN(___,0,0x000),
    DN(___,0,0x000),
    DN(___,0,0x000),
    DN(___,0,0x000),
    DN(___,0,0x000),
    DN(___,0,0x000),
    DN(___,0,0x000),
};
static const unsigned char P7[] = {
    DN(___,0,0x000),
    DN(___,0,0x000),
    DN(___,0,0x000),
    DN(___,0,0x000),
    DN(___,0,0x000),
    DN(___,0,0x000),
    DN(___,0,0x000),
    DN(___,0,0x000),
    DN(C_7,3,0x000),
    DN(___,0,0x000),
    DN(___,0,0x000),
    DN(___,0,0x000),
    DN(___,0,0x000),
    DN(___,0,0x000),
    DN(___,0,0x000),
    DN(___,0,0x000),
    DN(___,0,0x000),
    DN(___,0,0x000),
    DN(___,0,0x000),
    DN(___,0,0x000),
    DN(___,0,0x000),
    DN(___,0,0x000),
    DN(___,0,0x000),
    DN(___,0,0x000),
    DN(C_7,3,0x000),
    DN(___,0,0x000),
    DN(___,0,0x000),
    DN(___,0,0x000),
    DN(___,0,0x000),
    DN(___,0,0x000),
    DN(___,0,0x000),
    DN(___,0,0x000),
    DN(C_7,3,0x000),
    DN(___,0,0x000),
    DN(___,0,0x000),
    DN(___,0,0x000),
    DN(___,0,0x000),
    DN(___,0,0x000),
    DN(___,0,0x000),
    DN(___,0,0x000),
    DN(C_7,3,0x000),
    DN(___,0,0x000),
    DN(___,0,0x000),
    DN(___,0,0x000),
    DN(C_7,3,0x000),
    DN(___,0,0x000),
    DN(___,0,0x000),
    DN(___,0,0x000),
    DN(C_7,3,0x000),
    DN(___,0,0x000),
    DN(___,0,0x000),
    DN(___,0,0x000),
    DN(C_7,3,0x000),
    DN(___,0,0x000),
    DN(___,0,0x000),
    DN(___,0,0x000),
    DN(C_7,3,0x000),
    DN(___,0,0x000),
    DN(C_7,3,0x000),
    DN(___,0,0x000),
    DN(C_7,3,0x000),
    DN(___,0,0x000),
    DN(C_7,3,0x000),
    DN(___,0,0x000),
};
static const unsigned char P8[] = {
    DN(C_7,1,0x000),
    DN(___,0,0x000),
    DN(___,0,0x000),
    DN(___,0,0x000),
    DN(___,0,0x000),
    DN(___,0,0x000),
    DN(___,0,0x000),
    DN(___,0,0x000),
    DN(C_7,3,0x000),
    DN(___,0,0x000),
    DN(___,0,0x000),
    DN(___,0,0x000),
    DN(___,0,0x000),
    DN(___,0,0x000),
    DN(___,0,0x000),
    DN(___,0,0x000),
    DN(C_7,1,0x000),
    DN(___,0,0x000),
    DN(C_7,3,0x000),
    DN(___,0,0x000),
    DN(___,0,0x000),
    DN(___,0,0x000),
    DN(___,0,0x000),
    DN(___,0,0x000),
    DN(C_7,3,0x000),
    DN(___,0,0x000),
    DN(___,0,0x000),
    DN(___,0,0x000),
    DN(___,0,0x000),
    DN(___,0,0x000),
    DN(___,0,0x000),
    DN(___,0,0x000),
    DN(C_7,1,0x000),
    DN(___,0,0x000),
    DN(___,0,0x000),
    DN(___,0,0x000),
    DN(___,0,0x000),
    DN(___,0,0x000),
    DN(___,0,0x000),
    DN(___,0,0x000),
    DN(C_7,3,0x000),
    DN(___,0,0x000),
    DN(___,0,0x000),
    DN(___,0,0x000),
    DN(___,0,0x000),
    DN(___,0,0x000),
    DN(___,0,0x000),
    DN(___,0,0x000),
    DN(C_7,1,0x000),
    DN(___,0,0x000),
    DN(C_7,3,0x000),
    DN(___,0,0x000),
    DN(___,0,0x000),
    DN(___,0,0x000),
    DN(___,0,0x000),
    DN(___,0,0x000),
    DN(C_7,3,0x000),
    DN(___,0,0x000),
    DN(___,0,0x000),
    DN(___,0,0x000),
    DN(C_7,1,0x000),
    DN(___,0,0x000),
    DN(___,0,0x000),
    DN(___,0,0x000),
};
static const unsigned char P9[] = {
    DN(C_8,2,0x000),
    DN(___,0,0x000),
    DN(___,0,0x000),
    DN(___,0,0x000),
    DN(C_8,1,0x000),
    DN(___,0,0x000),
    DN(C_8,1,0x000),
    DN(___,0,0x000),
    DN(C_8,1,0x000),
    DN(___,0,0x000),
    DN(___,0,0x000),
    DN(___,0,0x000),
    DN(C_8,1,0x000),
    DN(___,0,0x000),
    DN(___,0,0x000),
    DN(___,0,0x000),
    DN(C_8,1,0x000),
    DN(___,0,0x000),
    DN(C_8,1,0x000),
    DN(___,0,0x000),
    DN(C_8,1,0x000),
    DN(___,0,0x000),
    DN(___,0,0x000),
    DN(___,0,0x000),
    DN(___,0,0x000),
    DN(___,0,0x000),
    DN(___,0,0x000),
    DN(___,0,0x000),
    DN(___,0,0x000),
    DN(___,0,0x000),
    DN(___,0,0x000),
    DN(___,0,0x000),
    DN(___,0,0x000),
    DN(___,0,0x000),
    DN(___,0,0x000),
    DN(___,0,0x000),
    DN(___,0,0x000),
    DN(___,0,0x000),
    DN(___,0,0x000),
    DN(___,0,0x000),
    DN(C_7,3,0x000),
    DN(___,0,0x000),
    DN(___,0,0x000),
    DN(___,0,0x000),
    DN(___,0,0x000),
    DN(___,0,0x000),
    DN(___,0,0x000),
    DN(___,0,0x000),
    DN(___,0,0x000),
    DN(___,0,0x000),
    DN(___,0,0x000),
    DN(___,0,0x000),
    DN(___,0,0x000),
    DN(___,0,0x000),
    DN(___,0,0x000),
    DN(___,0,0x000),
    DN(C_7,3,0x000),
    DN(___,0,0x000),
    DN(___,0,0x000),
    DN(___,0,0x000),
    DN(___,0,0x000),
    DN(___,0,0x000),
    DN(___,0,0x000),
    DN(___,0,0x000),
};
static const unsigned char P39[] = {
    DN(Cs4,5,0x000),
    DN(___,0,0x000),
    DN(Fs4,5,0x000),
    DN(___,0,0x000),
    DN(B_3,5,0x000),
    DN(___,0,0x000),
    DN(Ds4,5,0x000),
    DN(___,0,0x000),
    DN(Cs4,5,0x000),
    DN(___,0,0x000),
    DN(B_3,5,0x000),
    DN(___,0,0x000),
    DN(Cs4,5,0x000),
    DN(___,0,0x000),
    DN(___,0,0x000),
    DN(___,0,0x000),
    DN(Ds4,5,0x000),
    DN(___,0,0x000),
    DN(B_3,5,0x000),
    DN(___,0,0x000),
    DN(Cs4,5,0x000),
    DN(___,0,0x000),
    DN(Ds4,5,0x000),
    DN(___,0,0x000),
    DN(Cs4,5,0x000),
    DN(___,0,0x000),
    DN(B_3,5,0x000),
    DN(___,0,0x000),
    DN(B_3,5,0x000),
    DN(___,0,0x000),
    DN(___,0,0x000),
    DN(___,0,0x000),
    DN(Gs3,5,0x000),
    DN(___,0,0x000),
    DN(___,0,0x000),
    DN(___,0,0x000),
    DN(___,0,0x000),
    DN(___,0,0x000),
    DN(Gs3,5,0x000),
    DN(___,0,0x000),
    DN(Gs4,5,0x000),
    DN(___,0,0x000),
    DN(___,0,0x000),
    DN(___,0,0x000),
    DN(Gs3,5,0x000),
    DN(___,0,0x000),
    DN(Gs4,5,0x000),
    DN(___,0,0x000),
    DN(___,0,0x000),
    DN(___,0,0x000),
    DN(___,0,0x000),
    DN(___,0,0x000),
    DN(Gs4,5,0x000),
    DN(As4,5,0x000),
    DN(B_4,5,0x000),
    DN(C_5,5,0x000),
    DN(Cs5,5,0x000),
    DN(D_5,5,0x000),
    DN(Ds5,5,0x000),
    DN(D_5,5,0x000),
    DN(Cs5,5,0x000),
    DN(C_5,5,0x000),
    DN(B_4,5,0x000),
    DN(___,0,0x000),
};
static const unsigned char P43[] = {
    DN(Gs4,5,0x000),
    DN(___,0,0x000),
    DN(Ds4,5,0x000),
    DN(___,0,0x000),
    DN(Fs4,5,0x000),
    DN(___,0,0x000),
    DN(Ds4,5,0x000),
    DN(___,0,0x000),
    DN(Gs3,5,0x000),
    DN(___,0,0x000),
    DN(Fs4,5,0x000),
    DN(___,0,0x000),
    DN(Gs4,5,0x000),
    DN(___,0,0x000),
    DN(___,0,0x000),
    DN(___,0,0x000),
    DN(Fs4,5,0x000),
    DN(___,0,0x000),
    DN(Gs4,5,0x000),
    DN(___,0,0x000),
    DN(B_4,5,0x000),
    DN(___,0,0x000),
    DN(___,0,0x000),
    DN(___,0,0x000),
    DN(Gs4,5,0x000),
    DN(___,0,0x000),
    DN(Fs4,5,0x000),
    DN(___,0,0x000),
    DN(Ds4,5,0x000),
    DN(___,0,0x000),
    DN(Fs4,5,0x000),
    DN(___,0,0x000),
    DN(Gs4,5,0x000),
    DN(___,0,0x000),
    DN(___,0,0x000),
    DN(___,0,0x000),
    DN(Fs4,5,0x000),
    DN(___,0,0x000),
    DN(___,0,0x000),
    DN(___,0,0x000),
    DN(Gs4,5,0x000),
    DN(___,0,0x000),
    DN(Fs4,5,0x000),
    DN(___,0,0x000),
    DN(Gs4,5,0x000),
    DN(___,0,0x000),
    DN(___,0,0x000),
    DN(___,0,0x000),
    DN(___,0,0x000),
    DN(___,0,0x000),
    DN(Fs4,5,0x000),
    DN(E_4,5,0x000),
    DN(Ds4,5,0x000),
    DN(___,0,0x000),
    DN(___,0,0x000),
    DN(___,0,0x000),
    DN(Fs4,5,0x000),
    DN(___,0,0x000),
    DN(Ds4,5,0x000),
    DN(___,0,0x000),
    DN(Cs4,5,0x000),
    DN(___,0,0x000),
    DN(Ds4,5,0x000),
    DN(___,0,0x000),
};
static const unsigned char P51[] = {
    DN(Gs4,5,0x000),
    DN(___,0,0x000),
    DN(Ds4,5,0x000),
    DN(___,0,0x000),
    DN(Fs4,5,0x000),
    DN(___,0,0x000),
    DN(Ds4,5,0x000),
    DN(___,0,0x000),
    DN(Gs4,5,0x000),
    DN(___,0,0x000),
    DN(Ds5,5,0x000),
    DN(___,0,0x000),
    DN(Cs5,5,0x000),
    DN(___,0,0x000),
    DN(D_4,5,0x000),
    DN(___,0,0x000),
    DN(Ds5,5,0x000),
    DN(___,0,0x000),
    DN(Fs4,5,0x000),
    DN(___,0,0x000),
    DN(Gs4,5,0x000),
    DN(___,0,0x000),
    DN(___,0,0x000),
    DN(___,0,0x000),
    DN(Gs4,5,0x000),
    DN(___,0,0x000),
    DN(Ds5,5,0x000),
    DN(___,0,0x000),
    DN(Cs5,5,0x000),
    DN(___,0,0x000),
    DN(B_4,5,0x000),
    DN(___,0,0x000),
    DN(G_5,5,0x000),
    DN(Gs5,5,0x000),
    DN(___,0,0x000),
    DN(___,0,0x000),
    DN(Fs5,5,0x000),
    DN(___,0,0x000),
    DN(___,0,0x000),
    DN(___,0,0x000),
    DN(Ds5,5,0x000),
    DN(___,0,0x000),
    DN(Cs5,5,0x000),
    DN(___,0,0x000),
    DN(Ds5,5,0x000),
    DN(___,0,0x000),
    DN(___,0,0x000),
    DN(___,0,0x000),
    DN(___,0,0x000),
    DN(___,0,0x000),
    DN(Fs4,5,0x000),
    DN(E_4,5,0x000),
    DN(Ds4,5,0x000),
    DN(___,0,0x000),
    DN(___,0,0x000),
    DN(___,0,0x000),
    DN(Fs4,5,0x000),
    DN(___,0,0x000),
    DN(Ds4,5,0x000),
    DN(___,0,0x000),
    DN(Cs4,5,0x000),
    DN(___,0,0x000),
    DN(Ds4,5,0x000),
    DN(___,0,0x000),
};
static const unsigned char P64[] = {
    DN(Gs4,6,0x000),
    DN(___,0,0x000),
    DN(Gs5,6,0x000),
    DN(___,0,0x000),
    DN(B_5,6,0x000),
    DN(___,0,0x000),
    DN(Gs4,6,0x000),
    DN(___,0,0x000),
    DN(Gs5,6,0x000),
    DN(___,0,0x000),
    DN(Ds6,6,0x000),
    DN(___,0,0x000),
    DN(Gs4,6,0x000),
    DN(___,0,0x000),
    DN(Gs5,6,0x000),
    DN(___,0,0x000),
    DN(Ds6,6,0x000),
    DN(___,0,0x000),
    DN(Gs4,6,0x000),
    DN(___,0,0x000),
    DN(Gs5,6,0x000),
    DN(___,0,0x000),
    DN(B_5,6,0x000),
    DN(___,0,0x000),
    DN(Gs4,6,0x000),
    DN(___,0,0x000),
    DN(Gs5,6,0x000),
    DN(___,0,0x000),
    DN(Cs6,6,0x000),
    DN(___,0,0x000),
    DN(___,0,0x000),
    DN(___,0,0x000),
    DN(Gs4,6,0x000),
    DN(___,0,0x000),
    DN(Gs5,6,0x000),
    DN(___,0,0x000),
    DN(B_5,6,0x000),
    DN(___,0,0x000),
    DN(Gs4,6,0x000),
    DN(___,0,0x000),
    DN(Gs5,6,0x000),
    DN(___,0,0x000),
    DN(Cs6,6,0x000),
    DN(___,0,0x000),
    DN(Gs4,6,0x000),
    DN(___,0,0x000),
    DN(Gs5,6,0x000),
    DN(___,0,0x000),
    DN(Ds6,6,0x000),
    DN(___,0,0x000),
    DN(Gs4,6,0x000),
    DN(___,0,0x000),
    DN(Gs5,6,0x000),
    DN(___,0,0x000),
    DN(Fs6,6,0x000),
    DN(___,0,0x000),
    DN(Gs4,6,0x000),
    DN(___,0,0x000),
    DN(Gs5,6,0x000),
    DN(___,0,0x000),
    DN(Ds6,6,0x000),
    DN(___,0,0x000),
    DN(___,0,0x000),
    DN(___,0,0x000),
};
static const unsigned char P71[] = {
    DN(___,0,0x000),
    DN(___,0,0x000),
    DN(___,0,0x000),
    DN(___,0,0x000),
    DN(___,0,0x000),
    DN(___,0,0x000),
    DN(___,0,0x000),
    DN(___,0,0x000),
    DN(___,0,0x000),
    DN(___,0,0x000),
    DN(___,0,0x000),
    DN(___,0,0x000),
    DN(___,0,0x000),
    DN(___,0,0x000),
    DN(___,0,0x000),
    DN(___,0,0x000),
    DN(Gs6,5,0x000),
    DN(___,0,0x000),
    DN(Fs6,5,0x000),
    DN(___,0,0x000),
    DN(___,0,0x000),
    DN(___,0,0x000),
    DN(Cs6,5,0x000),
    DN(___,0,0x000),
    DN(Ds6,5,0x000),
    DN(___,0,0x000),
    DN(___,0,0x000),
    DN(___,0,0x000),
    DN(Ds6,5,0x000),
    DN(___,0,0x000),
    DN(Gs5,5,0x000),
    DN(___,0,0x000),
    DN(___,0,0x000),
    DN(___,0,0x000),
    DN(___,0,0x000),
    DN(___,0,0x000),
    DN(___,0,0x000),
    DN(___,0,0x000),
    DN(___,0,0x000),
    DN(___,0,0x000),
    DN(___,0,0x000),
    DN(___,0,0x000),
    DN(___,0,0x000),
    DN(___,0,0x000),
    DN(___,0,0x000),
    DN(___,0,0x000),
    DN(___,0,0x000),
    DN(___,0,0x000),
    DN(Gs6,5,0x000),
    DN(___,0,0x000),
    DN(Fs6,5,0x000),
    DN(___,0,0x000),
    DN(___,0,0x000),
    DN(___,0,0x000),
    DN(Cs6,5,0x000),
    DN(___,0,0x000),
    DN(Ds6,5,0x000),
    DN(___,0,0x000),
    DN(___,0,0x000),
    DN(___,0,0x000),
    DN(Fs6,5,0x000),
    DN(___,0,0x000),
    DN(Gs6,5,0x000),
    DN(___,0,0x000),
};
static const unsigned char P82[] = {
    DN(___,0,0x000),
    DN(___,0,0x000),
    DN(___,0,0x000),
    DN(___,0,0x000),
    DN(___,0,0x000),
    DN(___,0,0x000),
    DN(___,0,0x000),
    DN(___,0,0x000),
    DN(___,0,0x000),
    DN(___,0,0x000),
    DN(___,0,0x000),
    DN(___,0,0x000),
    DN(___,0,0x000),
    DN(___,0,0x000),
    DN(___,0,0x000),
    DN(___,0,0x000),
    DN(Fs6,5,0x000),
    DN(___,0,0x000),
    DN(E_6,5,0x000),
    DN(___,0,0x000),
    DN(___,0,0x000),
    DN(___,0,0x000),
    DN(B_6,5,0x000),
    DN(___,0,0x000),
    DN(Cs6,5,0x000),
    DN(___,0,0x000),
    DN(___,0,0x000),
    DN(___,0,0x000),
    DN(Cs6,5,0x000),
    DN(___,0,0x000),
    DN(Fs5,5,0x000),
    DN(___,0,0x000),
    DN(___,0,0x000),
    DN(___,0,0x000),
    DN(___,0,0x000),
    DN(___,0,0x000),
    DN(___,0,0x000),
    DN(___,0,0x000),
    DN(___,0,0x000),
    DN(___,0,0x000),
    DN(___,0,0x000),
    DN(___,0,0x000),
    DN(___,0,0x000),
    DN(___,0,0x000),
    DN(___,0,0x000),
    DN(___,0,0x000),
    DN(___,0,0x000),
    DN(___,0,0x000),
    DN(Fs6,5,0x000),
    DN(___,0,0x000),
    DN(E_6,5,0x000),
    DN(___,0,0x000),
    DN(___,0,0x000),
    DN(___,0,0x000),
    DN(E_6,5,0x000),
    DN(___,0,0x000),
    DN(Cs6,5,0x000),
    DN(___,0,0x000),
    DN(___,0,0x000),
    DN(___,0,0x000),
    DN(E_6,5,0x000),
    DN(___,0,0x000),
    DN(Fs6,5,0x000),
    DN(___,0,0x000),
};
static const unsigned char P83[] = {
    DN(Fs4,6,0x000),
    DN(___,0,0x000),
    DN(Fs5,6,0x000),
    DN(___,0,0x000),
    DN(A_5,6,0x000),
    DN(___,0,0x000),
    DN(Fs4,6,0x000),
    DN(___,0,0x000),
    DN(Fs5,6,0x000),
    DN(___,0,0x000),
    DN(B_5,6,0x000),
    DN(___,0,0x000),
    DN(Fs4,6,0x000),
    DN(___,0,0x000),
    DN(Fs5,6,0x000),
    DN(___,0,0x000),
    DN(Cs6,6,0x000),
    DN(___,0,0x000),
    DN(Fs4,6,0x000),
    DN(___,0,0x000),
    DN(Fs5,6,0x000),
    DN(___,0,0x000),
    DN(A_5,6,0x000),
    DN(___,0,0x000),
    DN(Fs4,6,0x000),
    DN(___,0,0x000),
    DN(Fs5,6,0x000),
    DN(___,0,0x000),
    DN(B_5,6,0x000),
    DN(___,0,0x000),
    DN(Fs4,6,0x000),
    DN(___,0,0x000),
    DN(Fs4,6,0x000),
    DN(___,0,0x000),
    DN(Fs5,6,0x000),
    DN(___,0,0x000),
    DN(A_5,6,0x000),
    DN(___,0,0x000),
    DN(Fs4,6,0x000),
    DN(___,0,0x000),
    DN(Fs5,6,0x000),
    DN(___,0,0x000),
    DN(B_5,6,0x000),
    DN(___,0,0x000),
    DN(Fs4,6,0x000),
    DN(___,0,0x000),
    DN(Fs5,6,0x000),
    DN(___,0,0x000),
    DN(Cs6,6,0x000),
    DN(___,0,0x000),
    DN(Fs4,6,0x000),
    DN(___,0,0x000),
    DN(Fs5,6,0x000),
    DN(___,0,0x000),
    DN(B_5,6,0x000),
    DN(___,0,0x000),
    DN(Fs4,6,0x000),
    DN(___,0,0x000),
    DN(Fs5,6,0x000),
    DN(___,0,0x000),
    DN(Cs6,6,0x000),
    DN(___,0,0x000),
    DN(Fs4,6,0x000),
    DN(___,0,0x000),
};
static const unsigned char P92[] = {
    DN(___,0,0x000),
    DN(___,0,0x000),
    DN(___,0,0x000),
    DN(___,0,0x000),
    DN(___,0,0x000),
    DN(___,0,0x000),
    DN(___,0,0x000),
    DN(___,0,0x000),
    DN(___,0,0x000),
    DN(___,0,0x000),
    DN(___,0,0x000),
    DN(___,0,0x000),
    DN(___,0,0x000),
    DN(___,0,0x000),
    DN(___,0,0x000),
    DN(___,0,0x000),
    DN(E_6,5,0x000),
    DN(___,0,0x000),
    DN(D_6,5,0x000),
    DN(___,0,0x000),
    DN(___,0,0x000),
    DN(___,0,0x000),
    DN(A_5,5,0x000),
    DN(___,0,0x000),
    DN(B_5,5,0x000),
    DN(___,0,0x000),
    DN(___,0,0x000),
    DN(___,0,0x000),
    DN(B_5,5,0x000),
    DN(___,0,0x000),
    DN(E_5,5,0x000),
    DN(___,0,0x000),
    DN(___,0,0x000),
    DN(___,0,0x000),
    DN(___,0,0x000),
    DN(___,0,0x000),
    DN(___,0,0x000),
    DN(___,0,0x000),
    DN(___,0,0x000),
    DN(___,0,0x000),
    DN(___,0,0x000),
    DN(___,0,0x000),
    DN(___,0,0x000),
    DN(___,0,0x000),
    DN(___,0,0x000),
    DN(___,0,0x000),
    DN(___,0,0x000),
    DN(___,0,0x000),
    DN(E_6,5,0x000),
    DN(___,0,0x000),
    DN(D_6,5,0x000),
    DN(___,0,0x000),
    DN(___,0,0x000),
    DN(___,0,0x000),
    DN(A_5,5,0x000),
    DN(___,0,0x000),
    DN(B_5,5,0x000),
    DN(___,0,0x000),
    DN(___,0,0x000),
    DN(___,0,0x000),
    DN(D_6,5,0x000),
    DN(___,0,0x000),
    DN(E_6,5,0x000),
    DN(___,0,0x000),
};
static const unsigned char P93[] = {
    DN(___,0,0x000),
    DN(___,0,0x000),
    DN(___,0,0x000),
    DN(___,0,0x000),
    DN(___,0,0x000),
    DN(___,0,0x000),
    DN(___,0,0x000),
    DN(___,0,0x000),
    DN(___,0,0x000),
    DN(___,0,0x000),
    DN(___,0,0x000),
    DN(___,0,0x000),
    DN(___,0,0x000),
    DN(___,0,0x000),
    DN(___,0,0x000),
    DN(___,0,0x000),
    DN(Cs7,5,0x000),
    DN(___,0,0x000),
    DN(B_6,5,0x000),
    DN(___,0,0x000),
    DN(___,0,0x000),
    DN(___,0,0x000),
    DN(Fs6,5,0x000),
    DN(___,0,0x000),
    DN(Gs6,5,0x000),
    DN(___,0,0x000),
    DN(___,0,0x000),
    DN(___,0,0x000),
    DN(Gs6,5,0x000),
    DN(___,0,0x000),
    DN(Cs6,5,0x000),
    DN(___,0,0x000),
    DN(___,0,0x000),
    DN(___,0,0x000),
    DN(___,0,0x000),
    DN(___,0,0x000),
    DN(___,0,0x000),
    DN(___,0,0x000),
    DN(___,0,0x000),
    DN(___,0,0x000),
    DN(___,0,0x000),
    DN(___,0,0x000),
    DN(___,0,0x000),
    DN(___,0,0x000),
    DN(___,0,0x000),
    DN(___,0,0x000),
    DN(___,0,0x000),
    DN(___,0,0x000),
    DN(Cs7,5,0x000),
    DN(___,0,0x000),
    DN(B_6,5,0x000),
    DN(___,0,0x000),
    DN(___,0,0x000),
    DN(___,0,0x000),
    DN(Gs6,5,0x000),
    DN(___,0,0x000),
    DN(Cs6,5,0x000),
    DN(___,0,0x000),
    DN(___,0,0x000),
    DN(___,0,0x000),
    DN(B_6,1,0x000),
    DN(___,0,0x000),
    DN(Cs7,5,0x000),
    DN(___,0,0x000),
};
static const unsigned char P94[] = {
    DN(Cs5,6,0x000),
    DN(___,0,0x000),
    DN(Cs6,6,0x000),
    DN(___,0,0x000),
    DN(E_6,6,0x000),
    DN(___,0,0x000),
    DN(Cs5,6,0x000),
    DN(___,0,0x000),
    DN(Cs6,6,0x000),
    DN(___,0,0x000),
    DN(Fs6,6,0x000),
    DN(___,0,0x000),
    DN(Cs5,6,0x000),
    DN(___,0,0x000),
    DN(Cs6,6,0x000),
    DN(___,0,0x000),
    DN(Gs6,6,0x000),
    DN(___,0,0x000),
    DN(Cs5,6,0x000),
    DN(___,0,0x000),
    DN(Cs6,6,0x000),
    DN(___,0,0x000),
    DN(E_6,6,0x000),
    DN(___,0,0x000),
    DN(Cs5,6,0x000),
    DN(___,0,0x000),
    DN(Cs6,6,0x000),
    DN(___,0,0x000),
    DN(Fs6,6,0x000),
    DN(___,0,0x000),
    DN(Cs5,6,0x000),
    DN(___,0,0x000),
    DN(Cs5,6,0x000),
    DN(___,0,0x000),
    DN(Cs6,6,0x000),
    DN(___,0,0x000),
    DN(E_6,6,0x000),
    DN(___,0,0x000),
    DN(Cs5,6,0x000),
    DN(___,0,0x000),
    DN(Cs6,6,0x000),
    DN(___,0,0x000),
    DN(Fs6,6,0x000),
    DN(___,0,0x000),
    DN(Cs5,6,0x000),
    DN(___,0,0x000),
    DN(Cs6,6,0x000),
    DN(___,0,0x000),
    DN(Gs6,6,0x000),
    DN(___,0,0x000),
    DN(Cs5,6,0x000),
    DN(___,0,0x000),
    DN(Cs6,6,0x000),
    DN(___,0,0x000),
    DN(Fs6,6,0x000),
    DN(___,0,0x000),
    DN(Cs5,6,0x000),
    DN(___,0,0x000),
    DN(Cs5,6,0x000),
    DN(___,0,0x000),
    DN(Cs6,6,0x000),
    DN(___,0,0x000),
    DN(E_6,6,0x000),
    DN(___,0,0x000),
};
static const unsigned char P97[] = {
    DN(F_5,6,0x000),
    DN(___,0,0x000),
    DN(F_6,6,0x000),
    DN(___,0,0x000),
    DN(Gs6,6,0x000),
    DN(___,0,0x000),
    DN(F_5,6,0x000),
    DN(___,0,0x000),
    DN(F_6,6,0x000),
    DN(___,0,0x000),
    DN(C_7,6,0x000),
    DN(___,0,0x000),
    DN(F_5,6,0x000),
    DN(___,0,0x000),
    DN(F_6,6,0x000),
    DN(___,0,0x000),
    DN(G_7,5,0x000),
    DN(___,0,0x000),
    DN(F_7,5,0x000),
    DN(___,0,0x000),
    DN(___,0,0x000),
    DN(___,0,0x000),
    DN(C_7,5,0x000),
    DN(___,0,0x000),
    DN(D_7,5,0x000),
    DN(___,0,0x000),
    DN(___,0,0x000),
    DN(___,0,0x000),
    DN(D_7,5,0x000),
    DN(___,0,0x000),
    DN(G_6,5,0x000),
    DN(___,0,0x000),
    DN(F_5,6,0x000),
    DN(___,0,0x000),
    DN(F_6,6,0x000),
    DN(___,0,0x000),
    DN(Gs6,6,0x000),
    DN(___,0,0x000),
    DN(F_5,6,0x000),
    DN(___,0,0x000),
    DN(F_6,6,0x000),
    DN(___,0,0x000),
    DN(As6,6,0x000),
    DN(___,0,0x000),
    DN(F_5,6,0x000),
    DN(___,0,0x000),
    DN(F_6,6,0x000),
    DN(___,0,0x000),
    DN(G_7,5,0x000),
    DN(___,0,0x000),
    DN(F_7,5,0x000),
    DN(___,0,0x000),
    DN(___,0,0x000),
    DN(___,0,0x000),
    DN(C_7,5,0x000),
    DN(___,0,0x000),
    DN(D_7,5,0x000),
    DN(___,0,0x000),
    DN(___,0,0x000),
    DN(___,0,0x000),
    DN(F_7,5,0x000),
    DN(___,0,0x000),
    DN(G_7,5,0x000),
    DN(___,0,0x000),
};
static const unsigned char P98[] = {
    DN(___,0,0x000),
    DN(___,0,0x000),
    DN(___,0,0x000),
    DN(___,0,0x000),
    DN(___,0,0x000),
    DN(___,0,0x000),
    DN(___,0,0x000),
    DN(___,0,0x000),
    DN(___,0,0x000),
    DN(___,0,0x000),
    DN(___,0,0x000),
    DN(___,0,0x000),
    DN(___,0,0x000),
    DN(___,0,0x000),
    DN(___,0,0x000),
    DN(___,0,0x000),
    DN(C_7,6,0x000),
    DN(___,0,0x000),
    DN(___,0,0x000),
    DN(___,0,0x000),
    DN(___,0,0x000),
    DN(___,0,0x000),
    DN(___,0,0x000),
    DN(___,0,0x000),
    DN(___,0,0x000),
    DN(___,0,0x000),
    DN(___,0,0x000),
    DN(___,0,0x000),
    DN(___,0,0x000),
    DN(___,0,0x000),
    DN(___,0,0x000),
    DN(___,0,0x000),
    DN(___,0,0x000),
    DN(___,0,0x000),
    DN(___,0,0x000),
    DN(___,0,0x000),
    DN(___,0,0x000),
    DN(___,0,0x000),
    DN(___,0,0x000),
    DN(___,0,0x000),
    DN(___,0,0x000),
    DN(___,0,0x000),
    DN(___,0,0x000),
    DN(___,0,0x000),
    DN(___,0,0x000),
    DN(___,0,0x000),
    DN(___,0,0x000),
    DN(___,0,0x000),
    DN(C_7,6,0x000),
    DN(___,0,0x000),
    DN(___,0,0x000),
    DN(___,0,0x000),
    DN(___,0,0x000),
    DN(___,0,0x000),
    DN(___,0,0x000),
    DN(___,0,0x000),
    DN(___,0,0x000),
    DN(___,0,0x000),
    DN(___,0,0x000),
    DN(___,0,0x000),
    DN(___,0,0x000),
    DN(___,0,0x000),
    DN(___,0,0x000),
    DN(___,0,0x000),
};
static const unsigned char P101[] = {
    DN(___,0,0x000),
    DN(___,0,0x000),
    DN(___,0,0x000),
    DN(___,0,0x000),
    DN(___,0,0x000),
    DN(___,0,0x000),
    DN(___,0,0x000),
    DN(___,0,0x000),
    DN(___,0,0x000),
    DN(___,0,0x000),
    DN(___,0,0x000),
    DN(___,0,0x000),
    DN(___,0,0x000),
    DN(___,0,0x000),
    DN(___,0,0x000),
    DN(___,0,0x000),
    DN(___,0,0x000),
    DN(___,0,0x000),
    DN(___,0,0x000),
    DN(___,0,0x000),
    DN(___,0,0x000),
    DN(___,0,0x000),
    DN(___,0,0x000),
    DN(___,0,0x000),
    DN(___,0,0x000),
    DN(___,0,0x000),
    DN(___,0,0x000),
    DN(___,0,0x000),
    DN(___,0,0x000),
    DN(___,0,0x000),
    DN(___,0,0x000),
    DN(___,0,0x000),
    DN(Ds5,3,0xC06),
    DN(___,0,0x000),
    DN(Ds5,3,0xC06),
    DN(___,0,0x000),
    DN(Gs5,3,0xC06),
    DN(___,0,0x000),
    DN(___,0,0x000),
    DN(___,0,0x000),
    DN(___,0,0x000),
    DN(___,0,0x000),
    DN(Gs5,3,0xC06),
    DN(___,0,0x000),
    DN(Ds5,3,0xC06),
    DN(___,0,0x000),
    DN(Gs5,3,0xC06),
    DN(___,0,0x000),
    DN(Gs5,3,0xC06),
    DN(___,0,0x000),
    DN(Fs5,3,0xC06),
    DN(___,0,0x000),
    DN(Ds5,3,0xC06),
    DN(___,0,0x000),
    DN(___,0,0x000),
    DN(___,0,0x000),
    DN(___,0,0x000),
    DN(___,0,0x000),
    DN(___,0,0x000),
    DN(___,0,0x000),
    DN(___,0,0x000),
    DN(___,0,0x000),
    DN(___,0,0x000),
    DN(___,0,0x000),
};
static const unsigned char P103[] = {
    DN(___,0,0xC00),
    DN(___,0,0x000),
    DN(___,0,0x000),
    DN(___,0,0x000),
    DN(___,0,0x000),
    DN(___,0,0x000),
    DN(___,0,0x000),
    DN(___,0,0x000),
    DN(___,0,0x000),
    DN(___,0,0x000),
    DN(___,0,0x000),
    DN(___,0,0x000),
    DN(___,0,0x000),
    DN(___,0,0x000),
    DN(___,0,0x000),
    DN(___,0,0x000),
    DN(___,0,0x000),
    DN(___,0,0x000),
    DN(___,0,0x000),
    DN(___,0,0x000),
    DN(___,0,0x000),
    DN(___,0,0x000),
    DN(___,0,0x000),
    DN(___,0,0x000),
    DN(Ds4,7,0x000),
    DN(Gs4,7,0x000),
    DN(___,0,0x000),
    DN(___,0,0xC00),
    DN(___,0,0x000),
    DN(___,0,0x000),
    DN(___,0,0x000),
    DN(___,0,0x000),
    DN(Gs3,7,0x000),
    DN(___,0,0x000),
    DN(Gs4,7,0x000),
    DN(___,0,0x000),
    DN(___,0,0x000),
    DN(___,0,0x000),
    DN(Gs3,7,0x000),
    DN(___,0,0x000),
    DN(Gs4,7,0x000),
    DN(___,0,0x000),
    DN(Gs3,7,0x000),
    DN(___,0,0x000),
    DN(___,0,0x000),
    DN(___,0,0x000),
    DN(Gs4,7,0x000),
    DN(___,0,0x000),
    DN(Gs3,7,0x000),
    DN(___,0,0x000),
    DN(___,0,0x000),
    DN(___,0,0x000),
    DN(Ds4,7,0x000),
    DN(___,0,0x000),
    DN(Fs4,7,0x000),
    DN(___,0,0x000),
    DN(Gs4,7,0x000),
    DN(___,0,0x000),
    DN(B_4,7,0x000),
    DN(___,0,0x000),
    DN(Gs4,7,0x000),
    DN(___,0,0x000),
    DN(Fs4,7,0x000),
    DN(___,0,0x000),
};
static const unsigned char P110[] = {
    DN(Gs3,3,0x000),
    DN(___,0,0x000),
    DN(Gs4,3,0x000),
    DN(___,0,0x000),
    DN(___,0,0x000),
    DN(___,0,0x000),
    DN(Gs3,3,0x000),
    DN(___,0,0x000),
    DN(Gs4,3,0x000),
    DN(___,0,0x000),
    DN(___,0,0x000),
    DN(___,0,0x000),
    DN(Gs3,3,0x000),
    DN(___,0,0x000),
    DN(Gs4,3,0x000),
    DN(___,0,0x000),
    DN(___,0,0x000),
    DN(___,0,0x000),
    DN(Gs3,3,0x000),
    DN(___,0,0x000),
    DN(Ds4,3,0x000),
    DN(___,0,0x000),
    DN(Fs4,3,0x000),
    DN(___,0,0x000),
    DN(Gs4,3,0x000),
    DN(___,0,0x000),
    DN(B_4,3,0x000),
    DN(___,0,0x000),
    DN(Gs4,3,0x000),
    DN(___,0,0x000),
    DN(Fs4,3,0x000),
    DN(___,0,0x000),
    DN(Gs3,3,0x000),
    DN(___,0,0x000),
    DN(Gs4,3,0x000),
    DN(___,0,0x000),
    DN(___,0,0x000),
    DN(___,0,0x000),
    DN(Gs3,3,0x000),
    DN(___,0,0x000),
    DN(Gs4,3,0x000),
    DN(___,0,0x000),
    DN(___,0,0x000),
    DN(___,0,0x000),
    DN(Gs3,3,0x000),
    DN(___,0,0x000),
    DN(Gs4,3,0x000),
    DN(___,0,0x000),
    DN(___,0,0x000),
    DN(___,0,0x000),
    DN(Gs3,3,0x000),
    DN(___,0,0x000),
    DN(Ds4,3,0x000),
    DN(___,0,0x000),
    DN(Fs4,3,0x000),
    DN(___,0,0x000),
    DN(Gs4,3,0x000),
    DN(___,0,0x000),
    DN(B_4,3,0x000),
    DN(___,0,0x000),
    DN(Gs4,3,0x000),
    DN(___,0,0x000),
    DN(Fs4,3,0x000),
    DN(___,0,0x000),
};
static const unsigned char P111[] = {
    DN(Gs3,3,0x000),
    DN(___,0,0x000),
    DN(Gs4,3,0x000),
    DN(___,0,0x000),
    DN(___,0,0x000),
    DN(___,0,0x000),
    DN(Gs3,3,0x000),
    DN(___,0,0x000),
    DN(Gs4,3,0x000),
    DN(___,0,0x000),
    DN(Gs3,3,0x000),
    DN(___,0,0x000),
    DN(___,0,0x000),
    DN(___,0,0x000),
    DN(Gs4,3,0x000),
    DN(___,0,0x000),
    DN(Gs3,3,0x000),
    DN(___,0,0x000),
    DN(___,0,0x000),
    DN(___,0,0x000),
    DN(Ds4,3,0x000),
    DN(___,0,0x000),
    DN(Fs4,3,0x000),
    DN(___,0,0x000),
    DN(Gs4,3,0x000),
    DN(___,0,0x000),
    DN(B_4,3,0x000),
    DN(___,0,0x000),
    DN(Gs4,3,0x000),
    DN(___,0,0x000),
    DN(Fs4,3,0x000),
    DN(___,0,0x000),
    DN(Ds3,3,0x000),
    DN(___,0,0x000),
    DN(Ds4,3,0x000),
    DN(___,0,0x000),
    DN(___,0,0x000),
    DN(___,0,0x000),
    DN(Ds3,3,0x000),
    DN(___,0,0x000),
    DN(Ds4,3,0x000),
    DN(___,0,0x000),
    DN(Ds3,3,0x000),
    DN(___,0,0x000),
    DN(___,0,0x000),
    DN(___,0,0x000),
    DN(Ds4,3,0x000),
    DN(___,0,0x000),
    DN(Ds4,3,0x000),
    DN(___,0,0x000),
    DN(___,0,0x000),
    DN(___,0,0x000),
    DN(___,0,0x000),
    DN(___,0,0x000),
    DN(___,0,0x000),
    DN(___,0,0x000),
    DN(___,0,0xC00),
    DN(___,0,0x000),
    DN(___,0,0x000),
    DN(___,0,0x000),
    DN(___,0,0x000),
    DN(___,0,0x000),
    DN(___,0,0x000),
    DN(___,0,0x000),
};
static const unsigned char P113[] = {
    DN(Ds5,3,0x000),
    DN(G_5,3,0x000),
    DN(B_5,3,0x000),
    DN(Ds6,3,0x000),
    DN(E_5,3,0x000),
    DN(Gs5,3,0x000),
    DN(C_6,3,0x000),
    DN(E_5,3,0x000),
    DN(F_5,3,0x000),
    DN(A_5,3,0x000),
    DN(Cs6,3,0x000),
    DN(F_6,3,0x000),
    DN(F_5,3,0x000),
    DN(A_5,3,0x000),
    DN(Cs6,3,0x000),
    DN(F_6,3,0x000),
    DN(___,0,0x000),
    DN(___,0,0xC00),
    DN(F_5,6,0x000),
    DN(___,0,0x000),
    DN(F_6,6,0x000),
    DN(___,0,0x000),
    DN(Gs6,6,0x000),
    DN(___,0,0x000),
    DN(F_5,6,0x000),
    DN(___,0,0x000),
    DN(F_6,6,0x000),
    DN(___,0,0x000),
    DN(As6,6,0x000),
    DN(___,0,0x000),
    DN(___,0,0x000),
    DN(___,0,0x000),
    DN(Ds6,3,0x000),
    DN(G_6,3,0x000),
    DN(B_6,3,0x000),
    DN(Ds7,3,0x000),
    DN(E_6,3,0x000),
    DN(Gs6,3,0x000),
    DN(C_7,3,0x000),
    DN(E_7,3,0x000),
    DN(F_6,3,0x000),
    DN(A_6,3,0x000),
    DN(Cs7,3,0x000),
    DN(F_7,3,0x000),
    DN(F_6,3,0x000),
    DN(A_6,3,0x000),
    DN(Cs7,3,0x000),
    DN(F_7,3,0x000),
    DN(___,0,0x000),
    DN(___,0,0xC00),
    DN(F_5,6,0x000),
    DN(___,0,0x000),
    DN(F_6,6,0x000),
    DN(___,0,0x000),
    DN(Ds7,6,0x000),
    DN(___,0,0x000),
    DN(F_5,6,0x000),
    DN(___,0,0x000),
    DN(F_6,6,0x000),
    DN(___,0,0x000),
    DN(C_7,6,0x000),
    DN(___,0,0x000),
    DN(___,0,0x000),
    DN(___,0,0x000),
};
static const unsigned char P114[] = {
    DN(Ds5,3,0xC04),
    DN(___,0,0x000),
    DN(Ds5,3,0xC04),
    DN(___,0,0x000),
    DN(Gs5,3,0xC04),
    DN(___,0,0x000),
    DN(___,0,0xC00),
    DN(___,0,0x000),
    DN(___,0,0x000),
    DN(___,0,0x000),
    DN(Gs5,3,0xC06),
    DN(___,0,0x000),
    DN(Ds5,3,0xC06),
    DN(___,0,0x000),
    DN(Gs5,3,0xC06),
    DN(___,0,0x000),
    DN(Gs5,3,0xC06),
    DN(___,0,0x000),
    DN(Fs5,3,0xC06),
    DN(___,0,0x000),
    DN(Ds5,3,0xC06),
    DN(___,0,0x000),
    DN(___,0,0xC00),
    DN(___,0,0x000),
    DN(___,0,0x000),
    DN(___,0,0x000),
    DN(___,0,0x000),
    DN(___,0,0x000),
    DN(___,0,0x000),
    DN(___,0,0x000),
    DN(___,0,0x000),
    DN(___,0,0x000),
    DN(Ds5,3,0xC06),
    DN(___,0,0x000),
    DN(Ds5,3,0xC06),
    DN(___,0,0x000),
    DN(Gs5,3,0xC06),
    DN(___,0,0x000),
    DN(___,0,0xC00),
    DN(___,0,0x000),
    DN(___,0,0x000),
    DN(___,0,0x000),
    DN(Gs5,3,0xC06),
    DN(___,0,0x000),
    DN(Ds5,3,0xC06),
    DN(___,0,0x000),
    DN(Gs5,3,0xC06),
    DN(___,0,0x000),
    DN(Gs5,3,0xC06),
    DN(___,0,0x000),
    DN(Fs5,3,0xC06),
    DN(___,0,0x000),
    DN(Ds5,3,0xC06),
    DN(___,0,0x000),
    DN(___,0,0xC00),
    DN(___,0,0x000),
    DN(___,0,0x000),
    DN(___,0,0x000),
    DN(___,0,0x000),
    DN(___,0,0x000),
    DN(___,0,0x000),
    DN(___,0,0x000),
    DN(___,0,0x000),
    DN(___,0,0x000),
};
static const unsigned char P115[] = {
    DN(Gs3,7,0x000),
    DN(___,0,0x000),
    DN(Gs4,7,0x000),
    DN(___,0,0x000),
    DN(___,0,0x000),
    DN(___,0,0x000),
    DN(Gs3,7,0x000),
    DN(___,0,0x000),
    DN(Gs4,7,0x000),
    DN(___,0,0x000),
    DN(Gs3,7,0x000),
    DN(___,0,0x000),
    DN(___,0,0x000),
    DN(___,0,0x000),
    DN(Gs4,7,0x000),
    DN(___,0,0x000),
    DN(Gs3,7,0x000),
    DN(___,0,0x000),
    DN(___,0,0x000),
    DN(___,0,0x000),
    DN(Ds4,7,0x000),
    DN(___,0,0x000),
    DN(Fs4,7,0x000),
    DN(___,0,0x000),
    DN(Gs4,7,0x000),
    DN(___,0,0x000),
    DN(B_4,7,0x000),
    DN(___,0,0x000),
    DN(Gs4,7,0x000),
    DN(___,0,0x000),
    DN(Fs4,7,0x000),
    DN(___,0,0x000),
    DN(Gs3,7,0x000),
    DN(___,0,0x000),
    DN(Gs4,7,0x000),
    DN(___,0,0x000),
    DN(___,0,0x000),
    DN(___,0,0x000),
    DN(Gs3,7,0x000),
    DN(___,0,0x000),
    DN(Gs4,7,0x000),
    DN(___,0,0x000),
    DN(Gs3,7,0x000),
    DN(___,0,0x000),
    DN(___,0,0x000),
    DN(___,0,0x000),
    DN(Gs4,7,0x000),
    DN(___,0,0x000),
    DN(Gs3,7,0x000),
    DN(___,0,0x000),
    DN(___,0,0x000),
    DN(___,0,0x000),
    DN(Ds4,7,0x000),
    DN(___,0,0x000),
    DN(Fs4,7,0x000),
    DN(___,0,0x000),
    DN(Gs4,7,0x000),
    DN(___,0,0x000),
    DN(B_4,7,0x000),
    DN(___,0,0x000),
    DN(Gs4,7,0x000),
    DN(___,0,0x000),
    DN(Fs4,7,0x000),
    DN(___,0,0x000),
};
static const unsigned char P120[] = {
    DN(Gs3,7,0x000),
    DN(___,0,0x000),
    DN(Gs4,7,0x000),
    DN(___,0,0x000),
    DN(___,0,0x000),
    DN(___,0,0x000),
    DN(Gs3,7,0x000),
    DN(___,0,0x000),
    DN(Gs4,7,0x000),
    DN(___,0,0x000),
    DN(Gs3,7,0x000),
    DN(___,0,0x000),
    DN(___,0,0x000),
    DN(___,0,0x000),
    DN(Gs4,7,0x000),
    DN(___,0,0x000),
    DN(Gs3,7,0x000),
    DN(___,0,0x000),
    DN(___,0,0x000),
    DN(___,0,0x000),
    DN(Ds4,7,0x000),
    DN(___,0,0x000),
    DN(Fs4,7,0x000),
    DN(___,0,0x000),
    DN(Gs4,7,0x000),
    DN(___,0,0x000),
    DN(B_4,7,0x000),
    DN(___,0,0x000),
    DN(Gs4,7,0x000),
    DN(___,0,0x000),
    DN(Fs4,7,0x000),
    DN(___,0,0x000),
    DN(Ds3,7,0x000),
    DN(___,0,0x000),
    DN(Ds4,7,0x000),
    DN(___,0,0x000),
    DN(___,0,0x000),
    DN(___,0,0x000),
    DN(Ds3,7,0x000),
    DN(___,0,0x000),
    DN(Ds4,7,0x000),
    DN(___,0,0x000),
    DN(Ds3,7,0x000),
    DN(___,0,0x000),
    DN(___,0,0x000),
    DN(___,0,0x000),
    DN(Ds4,7,0x000),
    DN(___,0,0x000),
    DN(Ds4,7,0x000),
    DN(___,0,0x000),
    DN(___,0,0xC00),
    DN(___,0,0x000),
    DN(___,0,0x000),
    DN(___,0,0x000),
    DN(___,0,0x000),
    DN(___,0,0x000),
    DN(Ds4,7,0x000),
    DN(Gs4,7,0x000),
    DN(___,0,0x000),
    DN(___,0,0xC00),
    DN(___,0,0x000),
    DN(___,0,0x000),
    DN(___,0,0x000),
    DN(___,0,0x000),
};

static const unsigned char* const order1[] = {P0,P43,P39,P51,P39,P1,P1,P43,P39,P51,P39,P71,P71,P82,P71,P110,P111,P71,P92,P93,P97,P71,P101,P114,P114};
static const unsigned char* const order2[] = {P1,P1,P1,P1,P1,P2,P2,P1,P1,P1,P1,P2,P2,P2,P2,P1,P1,P2,P2,P2,P98,P2,P1,P2,P1};
static const unsigned char* const order3[] = {P2,P2,P2,P2,P2,P64,P64,P2,P2,P2,P2,P64,P64,P83,P64,P2,P2,P64,P83,P94,P113,P64,P103,P115,P120};
static const unsigned char* const order4[] = {P3,P4,P5,P6,P7,P8,P8,P8,P8,P8,P7,P6,P6,P6,P6,P8,P7,P6,P6,P6,P6,P6,P9,P6,P6};

static const hUGEDutyInstr_t duty_instruments[] = {
    {8,0,240,0,128},
    {8,64,240,0,128},
    {8,128,240,0,128},
    {8,192,240,0,128},
    {8,0,241,0,128},
    {8,64,241,0,128},
};
static const hUGEWaveInstr_t wave_instruments[] = {
    {0,32,0,0,128},
    {0,32,1,0,128},
    {0,32,2,0,128},
    {0,32,3,0,128},
    {0,32,4,0,128},
    {0,32,5,0,128},
    {0,32,6,0,128},
};
static const hUGENoiseInstr_t noise_instruments[] = {
    {98,0,83,0,0},
    {149,0,0,0,0},
    {129,0,102,0,0},
};

static const unsigned char waves[] = {
    0,0,255,255,255,255,255,255,255,255,255,255,255,255,255,255,
    0,0,0,0,255,255,255,255,255,255,255,255,255,255,255,255,
    0,0,0,0,0,0,0,0,255,255,255,255,255,255,255,255,
    0,0,0,0,0,0,0,0,0,0,0,0,255,255,255,255,
    0,1,18,35,52,69,86,103,120,137,154,171,188,205,222,239,
    254,220,186,152,118,84,50,16,18,52,86,120,154,188,222,255,
    122,205,219,117,33,19,104,189,220,151,65,1,71,156,221,184,
};

const hUGESong_t pressure_cooker = {4, &order_cnt, order1, order2, order3,order4, duty_instruments, wave_instruments, noise_instruments, NULL, waves};
